%TF.GenerationSoftware,KiCad,Pcbnew,(5.1.12-1-g0a0a2da680)-1*%
%TF.CreationDate,2021-11-24T18:51:27+01:00*%
%TF.ProjectId,loveu,6c6f7665-752e-46b6-9963-61645f706362,rev?*%
%TF.SameCoordinates,Original*%
%TF.FileFunction,Soldermask,Bot*%
%TF.FilePolarity,Negative*%
%FSLAX46Y46*%
G04 Gerber Fmt 4.6, Leading zero omitted, Abs format (unit mm)*
G04 Created by KiCad (PCBNEW (5.1.12-1-g0a0a2da680)-1) date 2021-11-24 18:51:27*
%MOMM*%
%LPD*%
G01*
G04 APERTURE LIST*
%ADD10C,0.100000*%
G04 APERTURE END LIST*
D10*
G36*
X131000000Y-75590000D02*
G01*
X131920000Y-75730000D01*
X132860000Y-75960000D01*
X133750000Y-76280000D01*
X134740000Y-76740000D01*
X135510000Y-77210000D01*
X136170000Y-77720000D01*
X136940000Y-78390000D01*
X137490000Y-78990000D01*
X138090000Y-79800000D01*
X138620000Y-80670000D01*
X139030000Y-81530000D01*
X139340000Y-82390000D01*
X139520000Y-83100000D01*
X139600000Y-83430000D01*
X139750000Y-84330000D01*
X139800000Y-85260000D01*
X139800000Y-87280000D01*
X139790000Y-104800000D01*
X120120000Y-104800000D01*
X119660000Y-104770000D01*
X119360000Y-104750000D01*
X119170000Y-104720000D01*
X118580000Y-104640000D01*
X118310000Y-104590000D01*
X117940000Y-104500000D01*
X117490000Y-104370000D01*
X116620000Y-104080000D01*
X116050000Y-103810000D01*
X115500000Y-103530000D01*
X115020000Y-103230000D01*
X114930000Y-103170000D01*
X114480000Y-102840000D01*
X114150000Y-102600000D01*
X113550000Y-102040000D01*
X113280000Y-101780000D01*
X112940000Y-101390000D01*
X112510000Y-100830000D01*
X112240000Y-100460000D01*
X112020000Y-100100000D01*
X111780000Y-99700000D01*
X111550000Y-99200000D01*
X111310000Y-98690000D01*
X111080000Y-98040000D01*
X110850000Y-97100000D01*
X110690000Y-96140000D01*
X110640000Y-95180000D01*
X110680000Y-94220000D01*
X110810000Y-93270000D01*
X111050000Y-92360000D01*
X111360000Y-91460000D01*
X111760000Y-90600000D01*
X112270000Y-89760000D01*
X112840000Y-89010000D01*
X113420000Y-88360000D01*
X114140000Y-87720000D01*
X114620000Y-87350000D01*
X115690000Y-86660000D01*
X116580000Y-86240000D01*
X117240000Y-86000000D01*
X117430000Y-85940000D01*
X118150000Y-85720000D01*
X118400000Y-85650000D01*
X118810000Y-85550000D01*
X119280000Y-85450000D01*
X119570000Y-85390000D01*
X119920000Y-85330000D01*
X120290000Y-85270000D01*
X120330000Y-84340000D01*
X120460000Y-83410000D01*
X120720000Y-82430000D01*
X121030000Y-81570000D01*
X121430000Y-80720000D01*
X121950000Y-79850000D01*
X122500000Y-79130000D01*
X123140000Y-78400000D01*
X123830000Y-77770000D01*
X124310000Y-77420000D01*
X124620000Y-77190000D01*
X125390000Y-76740000D01*
X125780000Y-76540000D01*
X126280000Y-76300000D01*
X127170000Y-75980000D01*
X128100000Y-75750000D01*
X129040000Y-75600000D01*
X130020000Y-75550000D01*
X131000000Y-75590000D01*
G37*
X131000000Y-75590000D02*
X131920000Y-75730000D01*
X132860000Y-75960000D01*
X133750000Y-76280000D01*
X134740000Y-76740000D01*
X135510000Y-77210000D01*
X136170000Y-77720000D01*
X136940000Y-78390000D01*
X137490000Y-78990000D01*
X138090000Y-79800000D01*
X138620000Y-80670000D01*
X139030000Y-81530000D01*
X139340000Y-82390000D01*
X139520000Y-83100000D01*
X139600000Y-83430000D01*
X139750000Y-84330000D01*
X139800000Y-85260000D01*
X139800000Y-87280000D01*
X139790000Y-104800000D01*
X120120000Y-104800000D01*
X119660000Y-104770000D01*
X119360000Y-104750000D01*
X119170000Y-104720000D01*
X118580000Y-104640000D01*
X118310000Y-104590000D01*
X117940000Y-104500000D01*
X117490000Y-104370000D01*
X116620000Y-104080000D01*
X116050000Y-103810000D01*
X115500000Y-103530000D01*
X115020000Y-103230000D01*
X114930000Y-103170000D01*
X114480000Y-102840000D01*
X114150000Y-102600000D01*
X113550000Y-102040000D01*
X113280000Y-101780000D01*
X112940000Y-101390000D01*
X112510000Y-100830000D01*
X112240000Y-100460000D01*
X112020000Y-100100000D01*
X111780000Y-99700000D01*
X111550000Y-99200000D01*
X111310000Y-98690000D01*
X111080000Y-98040000D01*
X110850000Y-97100000D01*
X110690000Y-96140000D01*
X110640000Y-95180000D01*
X110680000Y-94220000D01*
X110810000Y-93270000D01*
X111050000Y-92360000D01*
X111360000Y-91460000D01*
X111760000Y-90600000D01*
X112270000Y-89760000D01*
X112840000Y-89010000D01*
X113420000Y-88360000D01*
X114140000Y-87720000D01*
X114620000Y-87350000D01*
X115690000Y-86660000D01*
X116580000Y-86240000D01*
X117240000Y-86000000D01*
X117430000Y-85940000D01*
X118150000Y-85720000D01*
X118400000Y-85650000D01*
X118810000Y-85550000D01*
X119280000Y-85450000D01*
X119570000Y-85390000D01*
X119920000Y-85330000D01*
X120290000Y-85270000D01*
X120330000Y-84340000D01*
X120460000Y-83410000D01*
X120720000Y-82430000D01*
X121030000Y-81570000D01*
X121430000Y-80720000D01*
X121950000Y-79850000D01*
X122500000Y-79130000D01*
X123140000Y-78400000D01*
X123830000Y-77770000D01*
X124310000Y-77420000D01*
X124620000Y-77190000D01*
X125390000Y-76740000D01*
X125780000Y-76540000D01*
X126280000Y-76300000D01*
X127170000Y-75980000D01*
X128100000Y-75750000D01*
X129040000Y-75600000D01*
X130020000Y-75550000D01*
X131000000Y-75590000D01*
M02*
