%TF.GenerationSoftware,KiCad,Pcbnew,(5.1.12-1-g0a0a2da680)-1*%
%TF.CreationDate,2021-11-24T18:51:26+01:00*%
%TF.ProjectId,loveu,6c6f7665-752e-46b6-9963-61645f706362,rev?*%
%TF.SameCoordinates,Original*%
%TF.FileFunction,Copper,L1,Top*%
%TF.FilePolarity,Positive*%
%FSLAX46Y46*%
G04 Gerber Fmt 4.6, Leading zero omitted, Abs format (unit mm)*
G04 Created by KiCad (PCBNEW (5.1.12-1-g0a0a2da680)-1) date 2021-11-24 18:51:26*
%MOMM*%
%LPD*%
G01*
G04 APERTURE LIST*
%TA.AperFunction,SMDPad,CuDef*%
%ADD10C,0.100000*%
%TD*%
%TA.AperFunction,SMDPad,CuDef*%
%ADD11R,1.000000X1.450000*%
%TD*%
%TA.AperFunction,SMDPad,CuDef*%
%ADD12R,1.450000X1.000000*%
%TD*%
%TA.AperFunction,SMDPad,CuDef*%
%ADD13R,1.050000X0.600000*%
%TD*%
%TA.AperFunction,SMDPad,CuDef*%
%ADD14R,0.600000X1.050000*%
%TD*%
%TA.AperFunction,SMDPad,CuDef*%
%ADD15R,0.500000X1.075000*%
%TD*%
%TA.AperFunction,SMDPad,CuDef*%
%ADD16R,1.075000X0.500000*%
%TD*%
%TA.AperFunction,SMDPad,CuDef*%
%ADD17R,2.300000X2.300000*%
%TD*%
%TA.AperFunction,SMDPad,CuDef*%
%ADD18R,2.000000X1.400000*%
%TD*%
%TA.AperFunction,SMDPad,CuDef*%
%ADD19R,1.200000X1.400000*%
%TD*%
%TA.AperFunction,SMDPad,CuDef*%
%ADD20R,1.400000X2.000000*%
%TD*%
%TA.AperFunction,SMDPad,CuDef*%
%ADD21R,1.400000X1.200000*%
%TD*%
%TA.AperFunction,ViaPad*%
%ADD22C,0.800000*%
%TD*%
%TA.AperFunction,Conductor*%
%ADD23C,0.250000*%
%TD*%
%TA.AperFunction,NonConductor*%
%ADD24C,0.025400*%
%TD*%
%TA.AperFunction,NonConductor*%
%ADD25C,0.100000*%
%TD*%
G04 APERTURE END LIST*
%TA.AperFunction,SMDPad,CuDef*%
D10*
%TO.P,DP1,2*%
%TO.N,Net-(DP1-Pad2)*%
G36*
X119951579Y-82645406D02*
G01*
X119442462Y-83154523D01*
X119145477Y-82857538D01*
X119654594Y-82348421D01*
X119951579Y-82645406D01*
G37*
%TD.AperFunction*%
%TA.AperFunction,SMDPad,CuDef*%
%TO.P,DP1,1*%
%TO.N,Net-(DP1-Pad1)*%
G36*
X118254523Y-84342462D02*
G01*
X117745406Y-84851579D01*
X117448421Y-84554594D01*
X117957538Y-84045477D01*
X118254523Y-84342462D01*
G37*
%TD.AperFunction*%
%TD*%
%TA.AperFunction,SMDPad,CuDef*%
%TO.P,LED1,2*%
%TO.N,Net-(C1-Pad1)*%
G36*
X117698528Y-81891422D02*
G01*
X116708578Y-80901472D01*
X117344974Y-80265076D01*
X118334924Y-81255026D01*
X117698528Y-81891422D01*
G37*
%TD.AperFunction*%
%TA.AperFunction,SMDPad,CuDef*%
%TO.P,LED1,1*%
%TO.N,Net-(LED1-Pad1)*%
G36*
X116355026Y-83234924D02*
G01*
X115365076Y-82244974D01*
X116001472Y-81608578D01*
X116991422Y-82598528D01*
X116355026Y-83234924D01*
G37*
%TD.AperFunction*%
%TD*%
D11*
%TO.P,R2,2*%
%TO.N,Net-(Q1-Pad3)*%
X109968410Y-109838487D03*
%TO.P,R2,1*%
%TO.N,Net-(LED1-Pad1)*%
X111868410Y-109838487D03*
%TD*%
D12*
%TO.P,R1,1*%
%TO.N,Net-(C1-Pad1)*%
X144838487Y-76931590D03*
%TO.P,R1,2*%
%TO.N,Net-(DP1-Pad2)*%
X144838487Y-75031590D03*
%TD*%
D13*
%TO.P,Q2,1*%
%TO.N,Net-(Q1-Pad3)*%
X140638487Y-75031590D03*
%TO.P,Q2,2*%
%TO.N,Net-(BPW1-Pad1)*%
X140638487Y-76931590D03*
%TO.P,Q2,3*%
%TO.N,Net-(BPW4-Pad2)*%
X142838487Y-75981590D03*
%TD*%
D14*
%TO.P,Q1,3*%
%TO.N,Net-(Q1-Pad3)*%
X110918410Y-105638487D03*
%TO.P,Q1,2*%
%TO.N,Net-(C2-Pad2)*%
X111868410Y-107838487D03*
%TO.P,Q1,1*%
%TO.N,Net-(DP1-Pad1)*%
X109968410Y-107838487D03*
%TD*%
D15*
%TO.P,D2,1*%
%TO.N,Net-(BPW4-Pad2)*%
X147138486Y-74819589D03*
%TO.P,D2,2*%
%TO.N,Net-(C2-Pad2)*%
X147138486Y-77143589D03*
%TD*%
D16*
%TO.P,D1,1*%
%TO.N,Net-(C1-Pad1)*%
X112080409Y-112138486D03*
%TO.P,D1,2*%
%TO.N,Net-(BPW1-Pad1)*%
X109756409Y-112138486D03*
%TD*%
D17*
%TO.P,C2,2*%
%TO.N,Net-(C2-Pad2)*%
X141925000Y-80000000D03*
%TO.P,C2,1*%
%TO.N,Net-(BPW1-Pad1)*%
X146825000Y-80000000D03*
%TD*%
%TO.P,C1,2*%
%TO.N,Net-(BPW4-Pad2)*%
X115000000Y-106925000D03*
%TO.P,C1,1*%
%TO.N,Net-(C1-Pad1)*%
X115000000Y-111825000D03*
%TD*%
D18*
%TO.P,BPW4,2*%
%TO.N,Net-(BPW4-Pad2)*%
X144370000Y-84450000D03*
D19*
%TO.P,BPW4,1*%
%TO.N,Net-(BPW3-Pad2)*%
X144370000Y-90550000D03*
%TD*%
D18*
%TO.P,BPW3,2*%
%TO.N,Net-(BPW3-Pad2)*%
X144375000Y-97200000D03*
D19*
%TO.P,BPW3,1*%
%TO.N,Net-(BPW2-Pad2)*%
X144375000Y-103300000D03*
%TD*%
D20*
%TO.P,BPW2,2*%
%TO.N,Net-(BPW2-Pad2)*%
X139300000Y-109375000D03*
D21*
%TO.P,BPW2,1*%
%TO.N,Net-(BPW1-Pad2)*%
X133200000Y-109375000D03*
%TD*%
D20*
%TO.P,BPW1,2*%
%TO.N,Net-(BPW1-Pad2)*%
X126800000Y-109375000D03*
D21*
%TO.P,BPW1,1*%
%TO.N,Net-(BPW1-Pad1)*%
X120700000Y-109375000D03*
%TD*%
D22*
%TO.N,Net-(BPW4-Pad2)*%
X146250000Y-73000000D03*
X143250000Y-74250000D03*
%TO.N,Net-(C2-Pad2)*%
X144000000Y-80250000D03*
X148250000Y-78000000D03*
X110500000Y-103250000D03*
%TO.N,Net-(DP1-Pad1)*%
X114000000Y-104500000D03*
X108250000Y-106750000D03*
%TO.N,Net-(Q1-Pad3)*%
X109000000Y-103750000D03*
X138500000Y-74250000D03*
%TD*%
D23*
%TO.N,Net-(BPW1-Pad2)*%
X133200000Y-109375000D02*
X126800000Y-109375000D01*
%TO.N,Net-(BPW1-Pad1)*%
X146825000Y-80000000D02*
X146500000Y-80000000D01*
X146500000Y-80000000D02*
X144750000Y-78250000D01*
X141956897Y-78250000D02*
X140638487Y-76931590D01*
X144750000Y-78250000D02*
X141956897Y-78250000D01*
X109756409Y-112138486D02*
X110638486Y-112138486D01*
X110638486Y-112138486D02*
X112000000Y-113500000D01*
X116575000Y-113500000D02*
X120700000Y-109375000D01*
X112000000Y-113500000D02*
X116575000Y-113500000D01*
X120700000Y-109375000D02*
X120700000Y-110200000D01*
X120700000Y-110200000D02*
X123000000Y-112500000D01*
X123000000Y-112500000D02*
X143000000Y-112500000D01*
X146825000Y-108675000D02*
X146825000Y-80000000D01*
X143000000Y-112500000D02*
X146825000Y-108675000D01*
%TO.N,Net-(BPW2-Pad2)*%
X144375000Y-103300000D02*
X144375000Y-107125000D01*
X142125000Y-109375000D02*
X139300000Y-109375000D01*
X144375000Y-107125000D02*
X142125000Y-109375000D01*
%TO.N,Net-(BPW3-Pad2)*%
X144370000Y-97195000D02*
X144375000Y-97200000D01*
X144370000Y-90550000D02*
X144370000Y-97195000D01*
%TO.N,Net-(BPW4-Pad2)*%
X147138486Y-73888486D02*
X146250000Y-73000000D01*
X147138486Y-74819589D02*
X147138486Y-73888486D01*
X143250000Y-75570077D02*
X142838487Y-75981590D01*
X143250000Y-74250000D02*
X143250000Y-75570077D01*
X140178485Y-75981590D02*
X139500000Y-76660075D01*
X142838487Y-75981590D02*
X140178485Y-75981590D01*
X139500000Y-76660075D02*
X139500000Y-80500000D01*
X143450000Y-84450000D02*
X144370000Y-84450000D01*
X139500000Y-80500000D02*
X143450000Y-84450000D01*
X144370000Y-84450000D02*
X142000000Y-86820000D01*
X142000000Y-86820000D02*
X142000000Y-105750000D01*
X140825000Y-106925000D02*
X115000000Y-106925000D01*
X142000000Y-105750000D02*
X140825000Y-106925000D01*
%TO.N,Net-(C1-Pad1)*%
X114686514Y-112138486D02*
X115000000Y-111825000D01*
X112080409Y-112138486D02*
X114686514Y-112138486D01*
X126100000Y-72500000D02*
X117521751Y-81078249D01*
X144116899Y-72500000D02*
X126100000Y-72500000D01*
X145888488Y-74271589D02*
X144116899Y-72500000D01*
X145888488Y-75881589D02*
X145888488Y-74271589D01*
X144838487Y-76931590D02*
X145888488Y-75881589D01*
X116072165Y-81078249D02*
X117521751Y-81078249D01*
X107524999Y-89625415D02*
X116072165Y-81078249D01*
X107524999Y-109774999D02*
X107524999Y-89625415D01*
X109000000Y-111250000D02*
X107524999Y-109774999D01*
X111191923Y-111250000D02*
X109000000Y-111250000D01*
X112080409Y-112138486D02*
X111191923Y-111250000D01*
%TO.N,Net-(C2-Pad2)*%
X143750000Y-80000000D02*
X144000000Y-80250000D01*
X141925000Y-80000000D02*
X143750000Y-80000000D01*
X147994897Y-78000000D02*
X147138486Y-77143589D01*
X148250000Y-78000000D02*
X147994897Y-78000000D01*
X111868410Y-104618410D02*
X111868410Y-107838487D01*
X110500000Y-103250000D02*
X111868410Y-104618410D01*
%TO.N,Net-(DP1-Pad2)*%
X119548528Y-81051472D02*
X119548528Y-82751472D01*
X127350000Y-73250000D02*
X119548528Y-81051472D01*
X143500000Y-73250000D02*
X127350000Y-73250000D01*
X144838487Y-74588487D02*
X143500000Y-73250000D01*
X144838487Y-75031590D02*
X144838487Y-74588487D01*
%TO.N,Net-(DP1-Pad1)*%
X109338487Y-107838487D02*
X108250000Y-106750000D01*
X109968410Y-107838487D02*
X109338487Y-107838487D01*
X116687882Y-84448528D02*
X117851472Y-84448528D01*
X115051472Y-84448528D02*
X116687882Y-84448528D01*
X108800010Y-90699990D02*
X115051472Y-84448528D01*
X108800010Y-99050010D02*
X108800010Y-90699990D01*
X114000000Y-104250000D02*
X108800010Y-99050010D01*
X114000000Y-104500000D02*
X114000000Y-104250000D01*
%TO.N,Net-(LED1-Pad1)*%
X113000000Y-108706897D02*
X111868410Y-109838487D01*
X113000000Y-104000000D02*
X113000000Y-108706897D01*
X108350000Y-90350000D02*
X108350000Y-99350000D01*
X108350000Y-99350000D02*
X113000000Y-104000000D01*
X108300000Y-90300000D02*
X108350000Y-90350000D01*
X116178249Y-82421751D02*
X108300000Y-90300000D01*
%TO.N,Net-(Q1-Pad3)*%
X110918410Y-108888487D02*
X110918410Y-105638487D01*
X109968410Y-109838487D02*
X110918410Y-108888487D01*
X110918410Y-105638487D02*
X110388487Y-105638487D01*
X109000000Y-104250000D02*
X109000000Y-103750000D01*
X110388487Y-105638487D02*
X109000000Y-104250000D01*
X139856897Y-74250000D02*
X140638487Y-75031590D01*
X138500000Y-74250000D02*
X139856897Y-74250000D01*
%TD*%
D24*
X131128610Y-75622646D02*
X132067411Y-75782442D01*
X133036338Y-76022177D01*
X133655176Y-76241764D01*
X133974610Y-76391499D01*
X133974638Y-76391513D01*
X134704054Y-76731241D01*
X135423040Y-77160636D01*
X135772437Y-77410204D01*
X136371945Y-77869828D01*
X136781196Y-78229170D01*
X137190781Y-78658734D01*
X137330694Y-78808642D01*
X137460694Y-78948642D01*
X137460735Y-78948686D01*
X137610193Y-79108107D01*
X137689729Y-79217470D01*
X137689840Y-79217620D01*
X137779777Y-79337536D01*
X137939729Y-79557470D01*
X137939759Y-79557510D01*
X138049729Y-79707470D01*
X138129729Y-79817470D01*
X138179541Y-79887207D01*
X138279308Y-80036857D01*
X138439184Y-80296656D01*
X138439285Y-80296818D01*
X138509123Y-80406563D01*
X138588801Y-80546000D01*
X138888554Y-81145506D01*
X138958491Y-81295371D01*
X138958492Y-81295371D01*
X139018469Y-81425322D01*
X139018641Y-81425680D01*
X139078345Y-81545087D01*
X139108025Y-81624235D01*
X139387893Y-82463839D01*
X139417816Y-82563584D01*
X139467743Y-82733335D01*
X139487679Y-82813080D01*
X139487836Y-82813649D01*
X139517748Y-82913354D01*
X139537649Y-82992960D01*
X139567625Y-83122856D01*
X139567679Y-83123080D01*
X139607580Y-83282683D01*
X139627505Y-83392272D01*
X139627518Y-83392340D01*
X139657466Y-83552065D01*
X139677416Y-83691712D01*
X139707407Y-83921643D01*
X139707416Y-83921716D01*
X139737416Y-84141716D01*
X139737473Y-84142088D01*
X139767362Y-84321420D01*
X139777322Y-84490746D01*
X139777330Y-84490874D01*
X139817300Y-85070442D01*
X139827294Y-104837313D01*
X120575365Y-104857300D01*
X120240757Y-104837323D01*
X120240682Y-104837318D01*
X119311442Y-104787359D01*
X118402637Y-104627569D01*
X117353682Y-104367828D01*
X116494901Y-104058267D01*
X115636066Y-103648822D01*
X114757109Y-103109462D01*
X113958054Y-102520160D01*
X113329084Y-101951091D01*
X112669823Y-101191943D01*
X112150468Y-100522773D01*
X111681214Y-99753995D01*
X111221768Y-98765188D01*
X110902186Y-97866364D01*
X110672462Y-96917503D01*
X110522660Y-95978746D01*
X110482713Y-94980070D01*
X110510016Y-94450385D01*
X112479566Y-94450385D01*
X112479567Y-94450780D01*
X112485799Y-95641031D01*
X112485967Y-95643316D01*
X112486120Y-95645755D01*
X112486174Y-95646146D01*
X112653884Y-96824538D01*
X112654369Y-96826820D01*
X112654844Y-96829175D01*
X112654950Y-96829555D01*
X112981035Y-97974285D01*
X112981830Y-97976493D01*
X112982616Y-97978748D01*
X112982773Y-97979110D01*
X113461198Y-99068993D01*
X113462302Y-99071104D01*
X113463370Y-99073200D01*
X113463574Y-99073538D01*
X114085488Y-100088409D01*
X114086851Y-100090327D01*
X114088210Y-100092282D01*
X114088458Y-100092588D01*
X114842351Y-101013666D01*
X114843977Y-101015397D01*
X114845574Y-101017134D01*
X114845862Y-101017404D01*
X115717784Y-101827644D01*
X115719616Y-101829128D01*
X115721447Y-101830642D01*
X115721769Y-101830871D01*
X116695586Y-102515281D01*
X116697592Y-102516496D01*
X116699623Y-102517755D01*
X116699973Y-102517938D01*
X117757664Y-103063854D01*
X117759837Y-103064794D01*
X117762000Y-103065757D01*
X117762371Y-103065891D01*
X118884368Y-103463210D01*
X118886611Y-103463836D01*
X118888921Y-103464507D01*
X118889307Y-103464589D01*
X120054844Y-103705961D01*
X120057147Y-103706276D01*
X120059531Y-103706628D01*
X120059925Y-103706657D01*
X121246894Y-103787576D01*
X121248152Y-103787700D01*
X138748153Y-103787700D01*
X138750000Y-103787882D01*
X138757390Y-103787154D01*
X138764497Y-103784998D01*
X138771046Y-103781498D01*
X138776787Y-103776787D01*
X138781498Y-103771046D01*
X138784998Y-103764497D01*
X138787154Y-103757390D01*
X138787700Y-103751847D01*
X138787882Y-103750000D01*
X138787700Y-103748153D01*
X138787700Y-86248153D01*
X138787690Y-86248050D01*
X138787219Y-86158175D01*
X138787133Y-86157002D01*
X138787133Y-86155808D01*
X138787104Y-86155414D01*
X138693717Y-84968816D01*
X138693377Y-84966517D01*
X138693050Y-84964129D01*
X138692968Y-84963743D01*
X138439405Y-83800797D01*
X138438752Y-83798550D01*
X138438108Y-83796244D01*
X138437974Y-83795872D01*
X138028927Y-82678098D01*
X138027979Y-82675970D01*
X138027024Y-82673763D01*
X138026841Y-82673413D01*
X137469879Y-81621496D01*
X137468637Y-81619492D01*
X137467406Y-81617460D01*
X137467177Y-81617138D01*
X136772607Y-80650541D01*
X136771105Y-80648726D01*
X136769608Y-80646877D01*
X136769338Y-80646589D01*
X135950012Y-79783199D01*
X135948248Y-79781577D01*
X135946544Y-79779977D01*
X135946237Y-79779728D01*
X135017316Y-79035522D01*
X135015401Y-79034191D01*
X135013442Y-79032799D01*
X135013112Y-79032600D01*
X135013105Y-79032595D01*
X135013098Y-79032592D01*
X133991777Y-78421344D01*
X133989697Y-78420284D01*
X133987571Y-78419173D01*
X133987208Y-78419016D01*
X132892374Y-77952030D01*
X132890210Y-77951277D01*
X132887911Y-77950449D01*
X132887531Y-77950343D01*
X131739450Y-77636263D01*
X131737157Y-77635801D01*
X131734814Y-77635303D01*
X131734423Y-77635250D01*
X130554338Y-77479889D01*
X130552045Y-77479745D01*
X130549614Y-77479566D01*
X130549219Y-77479567D01*
X129358969Y-77485799D01*
X129356633Y-77485970D01*
X129354245Y-77486121D01*
X129353854Y-77486174D01*
X128175461Y-77653884D01*
X128173160Y-77654373D01*
X128170825Y-77654844D01*
X128170445Y-77654950D01*
X127025715Y-77981035D01*
X127023507Y-77981830D01*
X127021252Y-77982616D01*
X127020889Y-77982773D01*
X125931007Y-78461199D01*
X125928937Y-78462281D01*
X125926800Y-78463370D01*
X125926462Y-78463574D01*
X124911592Y-79085487D01*
X124909674Y-79086850D01*
X124907719Y-79088209D01*
X124907412Y-79088458D01*
X123986335Y-79842351D01*
X123984677Y-79843909D01*
X123982867Y-79845573D01*
X123982596Y-79845861D01*
X123172356Y-80717784D01*
X123170876Y-80719611D01*
X123169357Y-80721448D01*
X123169128Y-80721770D01*
X122484719Y-81695586D01*
X122483516Y-81697573D01*
X122482245Y-81699623D01*
X122482062Y-81699973D01*
X121936146Y-82757665D01*
X121935214Y-82759819D01*
X121934243Y-82762000D01*
X121934109Y-82762371D01*
X121536790Y-83884367D01*
X121536164Y-83886610D01*
X121535493Y-83888920D01*
X121535411Y-83889306D01*
X121294039Y-85054844D01*
X121293723Y-85057153D01*
X121293372Y-85059531D01*
X121293343Y-85059925D01*
X121214770Y-86212485D01*
X121158175Y-86212781D01*
X121157002Y-86212867D01*
X121155808Y-86212867D01*
X121155414Y-86212896D01*
X119968816Y-86306283D01*
X119966517Y-86306623D01*
X119964129Y-86306950D01*
X119963743Y-86307032D01*
X118800797Y-86560595D01*
X118798550Y-86561248D01*
X118796244Y-86561892D01*
X118795872Y-86562026D01*
X117678098Y-86971073D01*
X117675970Y-86972021D01*
X117673763Y-86972976D01*
X117673413Y-86973159D01*
X116621496Y-87530121D01*
X116619492Y-87531363D01*
X116617460Y-87532594D01*
X116617138Y-87532823D01*
X115650541Y-88227393D01*
X115648726Y-88228895D01*
X115646877Y-88230392D01*
X115646589Y-88230662D01*
X114783199Y-89049988D01*
X114781577Y-89051752D01*
X114779977Y-89053456D01*
X114779728Y-89053763D01*
X114035522Y-89982684D01*
X114034191Y-89984599D01*
X114032799Y-89986558D01*
X114032600Y-89986888D01*
X114032595Y-89986895D01*
X114032592Y-89986902D01*
X113421344Y-91008223D01*
X113420284Y-91010303D01*
X113419173Y-91012429D01*
X113419016Y-91012792D01*
X112952030Y-92107626D01*
X112951277Y-92109790D01*
X112950449Y-92112089D01*
X112950343Y-92112469D01*
X112636263Y-93260550D01*
X112635801Y-93262843D01*
X112635303Y-93265186D01*
X112635250Y-93265577D01*
X112479889Y-94445662D01*
X112479745Y-94447948D01*
X112479566Y-94450385D01*
X110510016Y-94450385D01*
X110532645Y-94011399D01*
X110692440Y-93072598D01*
X110922179Y-92143657D01*
X111241741Y-91244887D01*
X111481371Y-90745659D01*
X111681142Y-90356106D01*
X112130598Y-89587036D01*
X112370160Y-89267620D01*
X112370262Y-89267482D01*
X112719845Y-88788053D01*
X113358934Y-88089051D01*
X114078058Y-87449829D01*
X114817092Y-86890560D01*
X115675987Y-86381215D01*
X116534878Y-85971744D01*
X117403754Y-85662144D01*
X118392495Y-85402475D01*
X119321172Y-85272660D01*
X120200577Y-85232687D01*
X120203041Y-85232331D01*
X120205388Y-85231500D01*
X120207528Y-85230228D01*
X120209379Y-85228563D01*
X120210869Y-85226569D01*
X120211942Y-85224322D01*
X120212527Y-85222088D01*
X120252512Y-84982178D01*
X120292504Y-84757223D01*
X120292508Y-84757199D01*
X120332461Y-84529968D01*
X120382404Y-84302726D01*
X120382433Y-84302590D01*
X120432433Y-84062590D01*
X120482386Y-83832810D01*
X120592270Y-83363302D01*
X120662150Y-83133698D01*
X120662160Y-83133665D01*
X120882160Y-82403665D01*
X120942027Y-82214088D01*
X121181731Y-81554902D01*
X121611133Y-80646166D01*
X122290394Y-79587318D01*
X122659787Y-79108106D01*
X123309004Y-78378986D01*
X123968084Y-77789808D01*
X124717170Y-77220503D01*
X125566019Y-76701207D01*
X126424791Y-76301778D01*
X127333684Y-75982167D01*
X128232484Y-75752474D01*
X129211162Y-75612663D01*
X130149946Y-75572714D01*
X131128610Y-75622646D01*
%TA.AperFunction,NonConductor*%
D25*
G36*
X131128610Y-75622646D02*
G01*
X132067411Y-75782442D01*
X133036338Y-76022177D01*
X133655176Y-76241764D01*
X133974610Y-76391499D01*
X133974638Y-76391513D01*
X134704054Y-76731241D01*
X135423040Y-77160636D01*
X135772437Y-77410204D01*
X136371945Y-77869828D01*
X136781196Y-78229170D01*
X137190781Y-78658734D01*
X137330694Y-78808642D01*
X137460694Y-78948642D01*
X137460735Y-78948686D01*
X137610193Y-79108107D01*
X137689729Y-79217470D01*
X137689840Y-79217620D01*
X137779777Y-79337536D01*
X137939729Y-79557470D01*
X137939759Y-79557510D01*
X138049729Y-79707470D01*
X138129729Y-79817470D01*
X138179541Y-79887207D01*
X138279308Y-80036857D01*
X138439184Y-80296656D01*
X138439285Y-80296818D01*
X138509123Y-80406563D01*
X138588801Y-80546000D01*
X138888554Y-81145506D01*
X138958491Y-81295371D01*
X138958492Y-81295371D01*
X139018469Y-81425322D01*
X139018641Y-81425680D01*
X139078345Y-81545087D01*
X139108025Y-81624235D01*
X139387893Y-82463839D01*
X139417816Y-82563584D01*
X139467743Y-82733335D01*
X139487679Y-82813080D01*
X139487836Y-82813649D01*
X139517748Y-82913354D01*
X139537649Y-82992960D01*
X139567625Y-83122856D01*
X139567679Y-83123080D01*
X139607580Y-83282683D01*
X139627505Y-83392272D01*
X139627518Y-83392340D01*
X139657466Y-83552065D01*
X139677416Y-83691712D01*
X139707407Y-83921643D01*
X139707416Y-83921716D01*
X139737416Y-84141716D01*
X139737473Y-84142088D01*
X139767362Y-84321420D01*
X139777322Y-84490746D01*
X139777330Y-84490874D01*
X139817300Y-85070442D01*
X139827294Y-104837313D01*
X120575365Y-104857300D01*
X120240757Y-104837323D01*
X120240682Y-104837318D01*
X119311442Y-104787359D01*
X118402637Y-104627569D01*
X117353682Y-104367828D01*
X116494901Y-104058267D01*
X115636066Y-103648822D01*
X114757109Y-103109462D01*
X113958054Y-102520160D01*
X113329084Y-101951091D01*
X112669823Y-101191943D01*
X112150468Y-100522773D01*
X111681214Y-99753995D01*
X111221768Y-98765188D01*
X110902186Y-97866364D01*
X110672462Y-96917503D01*
X110522660Y-95978746D01*
X110482713Y-94980070D01*
X110510016Y-94450385D01*
X112479566Y-94450385D01*
X112479567Y-94450780D01*
X112485799Y-95641031D01*
X112485967Y-95643316D01*
X112486120Y-95645755D01*
X112486174Y-95646146D01*
X112653884Y-96824538D01*
X112654369Y-96826820D01*
X112654844Y-96829175D01*
X112654950Y-96829555D01*
X112981035Y-97974285D01*
X112981830Y-97976493D01*
X112982616Y-97978748D01*
X112982773Y-97979110D01*
X113461198Y-99068993D01*
X113462302Y-99071104D01*
X113463370Y-99073200D01*
X113463574Y-99073538D01*
X114085488Y-100088409D01*
X114086851Y-100090327D01*
X114088210Y-100092282D01*
X114088458Y-100092588D01*
X114842351Y-101013666D01*
X114843977Y-101015397D01*
X114845574Y-101017134D01*
X114845862Y-101017404D01*
X115717784Y-101827644D01*
X115719616Y-101829128D01*
X115721447Y-101830642D01*
X115721769Y-101830871D01*
X116695586Y-102515281D01*
X116697592Y-102516496D01*
X116699623Y-102517755D01*
X116699973Y-102517938D01*
X117757664Y-103063854D01*
X117759837Y-103064794D01*
X117762000Y-103065757D01*
X117762371Y-103065891D01*
X118884368Y-103463210D01*
X118886611Y-103463836D01*
X118888921Y-103464507D01*
X118889307Y-103464589D01*
X120054844Y-103705961D01*
X120057147Y-103706276D01*
X120059531Y-103706628D01*
X120059925Y-103706657D01*
X121246894Y-103787576D01*
X121248152Y-103787700D01*
X138748153Y-103787700D01*
X138750000Y-103787882D01*
X138757390Y-103787154D01*
X138764497Y-103784998D01*
X138771046Y-103781498D01*
X138776787Y-103776787D01*
X138781498Y-103771046D01*
X138784998Y-103764497D01*
X138787154Y-103757390D01*
X138787700Y-103751847D01*
X138787882Y-103750000D01*
X138787700Y-103748153D01*
X138787700Y-86248153D01*
X138787690Y-86248050D01*
X138787219Y-86158175D01*
X138787133Y-86157002D01*
X138787133Y-86155808D01*
X138787104Y-86155414D01*
X138693717Y-84968816D01*
X138693377Y-84966517D01*
X138693050Y-84964129D01*
X138692968Y-84963743D01*
X138439405Y-83800797D01*
X138438752Y-83798550D01*
X138438108Y-83796244D01*
X138437974Y-83795872D01*
X138028927Y-82678098D01*
X138027979Y-82675970D01*
X138027024Y-82673763D01*
X138026841Y-82673413D01*
X137469879Y-81621496D01*
X137468637Y-81619492D01*
X137467406Y-81617460D01*
X137467177Y-81617138D01*
X136772607Y-80650541D01*
X136771105Y-80648726D01*
X136769608Y-80646877D01*
X136769338Y-80646589D01*
X135950012Y-79783199D01*
X135948248Y-79781577D01*
X135946544Y-79779977D01*
X135946237Y-79779728D01*
X135017316Y-79035522D01*
X135015401Y-79034191D01*
X135013442Y-79032799D01*
X135013112Y-79032600D01*
X135013105Y-79032595D01*
X135013098Y-79032592D01*
X133991777Y-78421344D01*
X133989697Y-78420284D01*
X133987571Y-78419173D01*
X133987208Y-78419016D01*
X132892374Y-77952030D01*
X132890210Y-77951277D01*
X132887911Y-77950449D01*
X132887531Y-77950343D01*
X131739450Y-77636263D01*
X131737157Y-77635801D01*
X131734814Y-77635303D01*
X131734423Y-77635250D01*
X130554338Y-77479889D01*
X130552045Y-77479745D01*
X130549614Y-77479566D01*
X130549219Y-77479567D01*
X129358969Y-77485799D01*
X129356633Y-77485970D01*
X129354245Y-77486121D01*
X129353854Y-77486174D01*
X128175461Y-77653884D01*
X128173160Y-77654373D01*
X128170825Y-77654844D01*
X128170445Y-77654950D01*
X127025715Y-77981035D01*
X127023507Y-77981830D01*
X127021252Y-77982616D01*
X127020889Y-77982773D01*
X125931007Y-78461199D01*
X125928937Y-78462281D01*
X125926800Y-78463370D01*
X125926462Y-78463574D01*
X124911592Y-79085487D01*
X124909674Y-79086850D01*
X124907719Y-79088209D01*
X124907412Y-79088458D01*
X123986335Y-79842351D01*
X123984677Y-79843909D01*
X123982867Y-79845573D01*
X123982596Y-79845861D01*
X123172356Y-80717784D01*
X123170876Y-80719611D01*
X123169357Y-80721448D01*
X123169128Y-80721770D01*
X122484719Y-81695586D01*
X122483516Y-81697573D01*
X122482245Y-81699623D01*
X122482062Y-81699973D01*
X121936146Y-82757665D01*
X121935214Y-82759819D01*
X121934243Y-82762000D01*
X121934109Y-82762371D01*
X121536790Y-83884367D01*
X121536164Y-83886610D01*
X121535493Y-83888920D01*
X121535411Y-83889306D01*
X121294039Y-85054844D01*
X121293723Y-85057153D01*
X121293372Y-85059531D01*
X121293343Y-85059925D01*
X121214770Y-86212485D01*
X121158175Y-86212781D01*
X121157002Y-86212867D01*
X121155808Y-86212867D01*
X121155414Y-86212896D01*
X119968816Y-86306283D01*
X119966517Y-86306623D01*
X119964129Y-86306950D01*
X119963743Y-86307032D01*
X118800797Y-86560595D01*
X118798550Y-86561248D01*
X118796244Y-86561892D01*
X118795872Y-86562026D01*
X117678098Y-86971073D01*
X117675970Y-86972021D01*
X117673763Y-86972976D01*
X117673413Y-86973159D01*
X116621496Y-87530121D01*
X116619492Y-87531363D01*
X116617460Y-87532594D01*
X116617138Y-87532823D01*
X115650541Y-88227393D01*
X115648726Y-88228895D01*
X115646877Y-88230392D01*
X115646589Y-88230662D01*
X114783199Y-89049988D01*
X114781577Y-89051752D01*
X114779977Y-89053456D01*
X114779728Y-89053763D01*
X114035522Y-89982684D01*
X114034191Y-89984599D01*
X114032799Y-89986558D01*
X114032600Y-89986888D01*
X114032595Y-89986895D01*
X114032592Y-89986902D01*
X113421344Y-91008223D01*
X113420284Y-91010303D01*
X113419173Y-91012429D01*
X113419016Y-91012792D01*
X112952030Y-92107626D01*
X112951277Y-92109790D01*
X112950449Y-92112089D01*
X112950343Y-92112469D01*
X112636263Y-93260550D01*
X112635801Y-93262843D01*
X112635303Y-93265186D01*
X112635250Y-93265577D01*
X112479889Y-94445662D01*
X112479745Y-94447948D01*
X112479566Y-94450385D01*
X110510016Y-94450385D01*
X110532645Y-94011399D01*
X110692440Y-93072598D01*
X110922179Y-92143657D01*
X111241741Y-91244887D01*
X111481371Y-90745659D01*
X111681142Y-90356106D01*
X112130598Y-89587036D01*
X112370160Y-89267620D01*
X112370262Y-89267482D01*
X112719845Y-88788053D01*
X113358934Y-88089051D01*
X114078058Y-87449829D01*
X114817092Y-86890560D01*
X115675987Y-86381215D01*
X116534878Y-85971744D01*
X117403754Y-85662144D01*
X118392495Y-85402475D01*
X119321172Y-85272660D01*
X120200577Y-85232687D01*
X120203041Y-85232331D01*
X120205388Y-85231500D01*
X120207528Y-85230228D01*
X120209379Y-85228563D01*
X120210869Y-85226569D01*
X120211942Y-85224322D01*
X120212527Y-85222088D01*
X120252512Y-84982178D01*
X120292504Y-84757223D01*
X120292508Y-84757199D01*
X120332461Y-84529968D01*
X120382404Y-84302726D01*
X120382433Y-84302590D01*
X120432433Y-84062590D01*
X120482386Y-83832810D01*
X120592270Y-83363302D01*
X120662150Y-83133698D01*
X120662160Y-83133665D01*
X120882160Y-82403665D01*
X120942027Y-82214088D01*
X121181731Y-81554902D01*
X121611133Y-80646166D01*
X122290394Y-79587318D01*
X122659787Y-79108106D01*
X123309004Y-78378986D01*
X123968084Y-77789808D01*
X124717170Y-77220503D01*
X125566019Y-76701207D01*
X126424791Y-76301778D01*
X127333684Y-75982167D01*
X128232484Y-75752474D01*
X129211162Y-75612663D01*
X130149946Y-75572714D01*
X131128610Y-75622646D01*
G37*
%TD.AperFunction*%
M02*
