%TF.GenerationSoftware,KiCad,Pcbnew,(5.1.12-1-g0a0a2da680)-1*%
%TF.CreationDate,2021-11-24T18:51:26+01:00*%
%TF.ProjectId,loveu,6c6f7665-752e-46b6-9963-61645f706362,rev?*%
%TF.SameCoordinates,Original*%
%TF.FileFunction,Paste,Top*%
%TF.FilePolarity,Positive*%
%FSLAX46Y46*%
G04 Gerber Fmt 4.6, Leading zero omitted, Abs format (unit mm)*
G04 Created by KiCad (PCBNEW (5.1.12-1-g0a0a2da680)-1) date 2021-11-24 18:51:26*
%MOMM*%
%LPD*%
G01*
G04 APERTURE LIST*
%ADD10C,0.100000*%
%ADD11R,1.000000X1.450000*%
%ADD12R,1.450000X1.000000*%
%ADD13R,1.050000X0.600000*%
%ADD14R,0.600000X1.050000*%
%ADD15R,0.500000X1.075000*%
%ADD16R,1.075000X0.500000*%
%ADD17R,2.300000X2.300000*%
%ADD18R,2.000000X1.400000*%
%ADD19R,1.200000X1.400000*%
%ADD20R,1.400000X2.000000*%
%ADD21R,1.400000X1.200000*%
G04 APERTURE END LIST*
D10*
%TO.C,DP1*%
G36*
X119951579Y-82645406D02*
G01*
X119442462Y-83154523D01*
X119145477Y-82857538D01*
X119654594Y-82348421D01*
X119951579Y-82645406D01*
G37*
G36*
X118254523Y-84342462D02*
G01*
X117745406Y-84851579D01*
X117448421Y-84554594D01*
X117957538Y-84045477D01*
X118254523Y-84342462D01*
G37*
%TD*%
%TO.C,LED1*%
G36*
X117698528Y-81891422D02*
G01*
X116708578Y-80901472D01*
X117344974Y-80265076D01*
X118334924Y-81255026D01*
X117698528Y-81891422D01*
G37*
G36*
X116355026Y-83234924D02*
G01*
X115365076Y-82244974D01*
X116001472Y-81608578D01*
X116991422Y-82598528D01*
X116355026Y-83234924D01*
G37*
%TD*%
D11*
%TO.C,R2*%
X109968410Y-109838487D03*
X111868410Y-109838487D03*
%TD*%
D12*
%TO.C,R1*%
X144838487Y-76931590D03*
X144838487Y-75031590D03*
%TD*%
D13*
%TO.C,Q2*%
X140638487Y-75031590D03*
X140638487Y-76931590D03*
X142838487Y-75981590D03*
%TD*%
D14*
%TO.C,Q1*%
X110918410Y-105638487D03*
X111868410Y-107838487D03*
X109968410Y-107838487D03*
%TD*%
D15*
%TO.C,D2*%
X147138486Y-74819589D03*
X147138486Y-77143589D03*
%TD*%
D16*
%TO.C,D1*%
X112080409Y-112138486D03*
X109756409Y-112138486D03*
%TD*%
D17*
%TO.C,C2*%
X141925000Y-80000000D03*
X146825000Y-80000000D03*
%TD*%
%TO.C,C1*%
X115000000Y-106925000D03*
X115000000Y-111825000D03*
%TD*%
D18*
%TO.C,BPW4*%
X144370000Y-84450000D03*
D19*
X144370000Y-90550000D03*
%TD*%
D18*
%TO.C,BPW3*%
X144375000Y-97200000D03*
D19*
X144375000Y-103300000D03*
%TD*%
D20*
%TO.C,BPW2*%
X139300000Y-109375000D03*
D21*
X133200000Y-109375000D03*
%TD*%
D20*
%TO.C,BPW1*%
X126800000Y-109375000D03*
D21*
X120700000Y-109375000D03*
%TD*%
M02*
