%TF.GenerationSoftware,KiCad,Pcbnew,(5.1.12-1-g0a0a2da680)-1*%
%TF.CreationDate,2021-11-24T18:51:27+01:00*%
%TF.ProjectId,loveu,6c6f7665-752e-46b6-9963-61645f706362,rev?*%
%TF.SameCoordinates,Original*%
%TF.FileFunction,Legend,Top*%
%TF.FilePolarity,Positive*%
%FSLAX46Y46*%
G04 Gerber Fmt 4.6, Leading zero omitted, Abs format (unit mm)*
G04 Created by KiCad (PCBNEW (5.1.12-1-g0a0a2da680)-1) date 2021-11-24 18:51:27*
%MOMM*%
%LPD*%
G01*
G04 APERTURE LIST*
%ADD10C,0.150000*%
%ADD11C,0.500000*%
%ADD12C,0.200000*%
%ADD13C,0.100000*%
%ADD14C,0.254000*%
G04 APERTURE END LIST*
D10*
X144278571Y-88500000D02*
X144326190Y-88357142D01*
X144373809Y-88309523D01*
X144469047Y-88261904D01*
X144611904Y-88261904D01*
X144707142Y-88309523D01*
X144754761Y-88357142D01*
X144802380Y-88452380D01*
X144802380Y-88833333D01*
X143802380Y-88833333D01*
X143802380Y-88500000D01*
X143850000Y-88404761D01*
X143897619Y-88357142D01*
X143992857Y-88309523D01*
X144088095Y-88309523D01*
X144183333Y-88357142D01*
X144230952Y-88404761D01*
X144278571Y-88500000D01*
X144278571Y-88833333D01*
X144802380Y-87833333D02*
X143802380Y-87833333D01*
X143802380Y-87452380D01*
X143850000Y-87357142D01*
X143897619Y-87309523D01*
X143992857Y-87261904D01*
X144135714Y-87261904D01*
X144230952Y-87309523D01*
X144278571Y-87357142D01*
X144326190Y-87452380D01*
X144326190Y-87833333D01*
X143802380Y-86928571D02*
X144802380Y-86690476D01*
X144088095Y-86500000D01*
X144802380Y-86309523D01*
X143802380Y-86071428D01*
X144378571Y-101350000D02*
X144426190Y-101207142D01*
X144473809Y-101159523D01*
X144569047Y-101111904D01*
X144711904Y-101111904D01*
X144807142Y-101159523D01*
X144854761Y-101207142D01*
X144902380Y-101302380D01*
X144902380Y-101683333D01*
X143902380Y-101683333D01*
X143902380Y-101350000D01*
X143950000Y-101254761D01*
X143997619Y-101207142D01*
X144092857Y-101159523D01*
X144188095Y-101159523D01*
X144283333Y-101207142D01*
X144330952Y-101254761D01*
X144378571Y-101350000D01*
X144378571Y-101683333D01*
X144902380Y-100683333D02*
X143902380Y-100683333D01*
X143902380Y-100302380D01*
X143950000Y-100207142D01*
X143997619Y-100159523D01*
X144092857Y-100111904D01*
X144235714Y-100111904D01*
X144330952Y-100159523D01*
X144378571Y-100207142D01*
X144426190Y-100302380D01*
X144426190Y-100683333D01*
X143902380Y-99778571D02*
X144902380Y-99540476D01*
X144188095Y-99350000D01*
X144902380Y-99159523D01*
X143902380Y-98921428D01*
X135200000Y-109328571D02*
X135342857Y-109376190D01*
X135390476Y-109423809D01*
X135438095Y-109519047D01*
X135438095Y-109661904D01*
X135390476Y-109757142D01*
X135342857Y-109804761D01*
X135247619Y-109852380D01*
X134866666Y-109852380D01*
X134866666Y-108852380D01*
X135200000Y-108852380D01*
X135295238Y-108900000D01*
X135342857Y-108947619D01*
X135390476Y-109042857D01*
X135390476Y-109138095D01*
X135342857Y-109233333D01*
X135295238Y-109280952D01*
X135200000Y-109328571D01*
X134866666Y-109328571D01*
X135866666Y-109852380D02*
X135866666Y-108852380D01*
X136247619Y-108852380D01*
X136342857Y-108900000D01*
X136390476Y-108947619D01*
X136438095Y-109042857D01*
X136438095Y-109185714D01*
X136390476Y-109280952D01*
X136342857Y-109328571D01*
X136247619Y-109376190D01*
X135866666Y-109376190D01*
X136771428Y-108852380D02*
X137009523Y-109852380D01*
X137200000Y-109138095D01*
X137390476Y-109852380D01*
X137628571Y-108852380D01*
X122650000Y-109378571D02*
X122792857Y-109426190D01*
X122840476Y-109473809D01*
X122888095Y-109569047D01*
X122888095Y-109711904D01*
X122840476Y-109807142D01*
X122792857Y-109854761D01*
X122697619Y-109902380D01*
X122316666Y-109902380D01*
X122316666Y-108902380D01*
X122650000Y-108902380D01*
X122745238Y-108950000D01*
X122792857Y-108997619D01*
X122840476Y-109092857D01*
X122840476Y-109188095D01*
X122792857Y-109283333D01*
X122745238Y-109330952D01*
X122650000Y-109378571D01*
X122316666Y-109378571D01*
X123316666Y-109902380D02*
X123316666Y-108902380D01*
X123697619Y-108902380D01*
X123792857Y-108950000D01*
X123840476Y-108997619D01*
X123888095Y-109092857D01*
X123888095Y-109235714D01*
X123840476Y-109330952D01*
X123792857Y-109378571D01*
X123697619Y-109426190D01*
X123316666Y-109426190D01*
X124221428Y-108902380D02*
X124459523Y-109902380D01*
X124650000Y-109188095D01*
X124840476Y-109902380D01*
X125078571Y-108902380D01*
D11*
X115819130Y-80799114D02*
G75*
G02*
X149200000Y-80000000I16680870J799114D01*
G01*
X114995734Y-114219150D02*
G75*
G02*
X115800000Y-80800000I4266J16719150D01*
G01*
X149200000Y-113800000D02*
G75*
G02*
X148800000Y-114200000I-400000J0D01*
G01*
X148800000Y-114200000D02*
X115000000Y-114200000D01*
X149200000Y-112200000D02*
X149200000Y-113800000D01*
X149200000Y-103600000D02*
X149200000Y-80000000D01*
D10*
X149652380Y-111671413D02*
X148652380Y-111546413D01*
X149652380Y-110290461D02*
X149604761Y-110379747D01*
X149509523Y-110415461D01*
X148652380Y-110308318D01*
X149652380Y-109766651D02*
X149604761Y-109855937D01*
X149557142Y-109897604D01*
X149461904Y-109933318D01*
X149176190Y-109897604D01*
X149080952Y-109838080D01*
X149033333Y-109784508D01*
X148985714Y-109683318D01*
X148985714Y-109540461D01*
X149033333Y-109451175D01*
X149080952Y-109409508D01*
X149176190Y-109373794D01*
X149461904Y-109409508D01*
X149557142Y-109469032D01*
X149604761Y-109522604D01*
X149652380Y-109623794D01*
X149652380Y-109766651D01*
X148985714Y-109016651D02*
X149652380Y-108861889D01*
X148985714Y-108540461D01*
X149604761Y-107855937D02*
X149652380Y-107957127D01*
X149652380Y-108147604D01*
X149604761Y-108236889D01*
X149509523Y-108272604D01*
X149128571Y-108224985D01*
X149033333Y-108165461D01*
X148985714Y-108064270D01*
X148985714Y-107873794D01*
X149033333Y-107784508D01*
X149128571Y-107748794D01*
X149223809Y-107760699D01*
X149319047Y-108248794D01*
X148985714Y-106635699D02*
X149652380Y-106480937D01*
X148985714Y-106159508D02*
X149652380Y-106480937D01*
X149890476Y-106605937D01*
X149938095Y-106659508D01*
X149985714Y-106760699D01*
X149652380Y-105719032D02*
X149604761Y-105808318D01*
X149557142Y-105849985D01*
X149461904Y-105885699D01*
X149176190Y-105849985D01*
X149080952Y-105790461D01*
X149033333Y-105736889D01*
X148985714Y-105635699D01*
X148985714Y-105492842D01*
X149033333Y-105403556D01*
X149080952Y-105361889D01*
X149176190Y-105326175D01*
X149461904Y-105361889D01*
X149557142Y-105421413D01*
X149604761Y-105474985D01*
X149652380Y-105576175D01*
X149652380Y-105719032D01*
X148985714Y-104445223D02*
X149652380Y-104528556D01*
X148985714Y-104873794D02*
X149509523Y-104939270D01*
X149604761Y-104903556D01*
X149652380Y-104814270D01*
X149652380Y-104671413D01*
X149604761Y-104570223D01*
X149557142Y-104516651D01*
D12*
%TO.C,LED1*%
X115548924Y-82923797D02*
X115548924Y-82923797D01*
%TO.C,R2*%
X110918410Y-110363487D02*
X110918410Y-109313487D01*
%TO.C,R1*%
X144313487Y-75981590D02*
X145363487Y-75981590D01*
%TO.C,Q2*%
X141513487Y-74531590D02*
X141963487Y-74531590D01*
X141963487Y-74531590D02*
X141963487Y-77431590D01*
X141963487Y-77431590D02*
X141513487Y-77431590D01*
X141513487Y-77431590D02*
X141513487Y-74531590D01*
X140113487Y-74481590D02*
X141163487Y-74481590D01*
%TO.C,Q1*%
X109418410Y-108363487D02*
X109418410Y-107313487D01*
X112368410Y-106963487D02*
X109468410Y-106963487D01*
X112368410Y-106513487D02*
X112368410Y-106963487D01*
X109468410Y-106513487D02*
X112368410Y-106513487D01*
X109468410Y-106963487D02*
X109468410Y-106513487D01*
%TO.C,D2*%
X147788486Y-74281589D02*
X147788486Y-76831589D01*
X146488486Y-75131589D02*
X146488486Y-76831589D01*
%TO.C,D1*%
X112618409Y-112788486D02*
X110068409Y-112788486D01*
X111768409Y-111488486D02*
X110068409Y-111488486D01*
%TO.C,C2*%
X147375000Y-78375000D02*
X141375000Y-78375000D01*
X141375000Y-81625000D02*
X147975000Y-81625000D01*
%TO.C,C1*%
X116625000Y-112375000D02*
X116625000Y-106375000D01*
X113375000Y-106375000D02*
X113375000Y-112975000D01*
%TO.C,BPW4*%
X144370000Y-92300000D02*
X144370000Y-92300000D01*
X144370000Y-92100000D02*
X144370000Y-92100000D01*
X144370000Y-92300000D02*
X144370000Y-92300000D01*
D13*
X146120000Y-85300000D02*
X146295000Y-85300000D01*
X146120000Y-85300000D02*
X146120000Y-85300000D01*
X146295000Y-85300000D02*
X146120000Y-85300000D01*
X146295000Y-85300000D02*
X146295000Y-85300000D01*
X146295000Y-89700000D02*
X145620000Y-89700000D01*
X146295000Y-89700000D02*
X146295000Y-89700000D01*
X145620000Y-89700000D02*
X146295000Y-89700000D01*
X145620000Y-89700000D02*
X145620000Y-89700000D01*
X142620000Y-85300000D02*
X142445000Y-85300000D01*
X142620000Y-85300000D02*
X142620000Y-85300000D01*
X142445000Y-85300000D02*
X142620000Y-85300000D01*
X142445000Y-85300000D02*
X142445000Y-85300000D01*
X142445000Y-89700000D02*
X143120000Y-89700000D01*
X142445000Y-89700000D02*
X142445000Y-89700000D01*
X143120000Y-89700000D02*
X142445000Y-89700000D01*
X143120000Y-89700000D02*
X143120000Y-89700000D01*
X146295000Y-89700000D02*
X146295000Y-89700000D01*
X146295000Y-85300000D02*
X146295000Y-89700000D01*
X146295000Y-85300000D02*
X146295000Y-85300000D01*
X146295000Y-89700000D02*
X146295000Y-85300000D01*
X142445000Y-89700000D02*
X142445000Y-89700000D01*
X142445000Y-85300000D02*
X142445000Y-89700000D01*
X142445000Y-85300000D02*
X142445000Y-85300000D01*
X142445000Y-89700000D02*
X142445000Y-85300000D01*
D12*
X144370000Y-92100000D02*
G75*
G02*
X144370000Y-92300000I0J-100000D01*
G01*
X144370000Y-92300000D02*
G75*
G02*
X144370000Y-92100000I0J100000D01*
G01*
X144370000Y-92100000D02*
G75*
G02*
X144370000Y-92300000I0J-100000D01*
G01*
%TO.C,BPW3*%
X144375000Y-105050000D02*
X144375000Y-105050000D01*
X144375000Y-104850000D02*
X144375000Y-104850000D01*
X144375000Y-105050000D02*
X144375000Y-105050000D01*
D13*
X146125000Y-98050000D02*
X146300000Y-98050000D01*
X146125000Y-98050000D02*
X146125000Y-98050000D01*
X146300000Y-98050000D02*
X146125000Y-98050000D01*
X146300000Y-98050000D02*
X146300000Y-98050000D01*
X146300000Y-102450000D02*
X145625000Y-102450000D01*
X146300000Y-102450000D02*
X146300000Y-102450000D01*
X145625000Y-102450000D02*
X146300000Y-102450000D01*
X145625000Y-102450000D02*
X145625000Y-102450000D01*
X142625000Y-98050000D02*
X142450000Y-98050000D01*
X142625000Y-98050000D02*
X142625000Y-98050000D01*
X142450000Y-98050000D02*
X142625000Y-98050000D01*
X142450000Y-98050000D02*
X142450000Y-98050000D01*
X142450000Y-102450000D02*
X143125000Y-102450000D01*
X142450000Y-102450000D02*
X142450000Y-102450000D01*
X143125000Y-102450000D02*
X142450000Y-102450000D01*
X143125000Y-102450000D02*
X143125000Y-102450000D01*
X146300000Y-102450000D02*
X146300000Y-102450000D01*
X146300000Y-98050000D02*
X146300000Y-102450000D01*
X146300000Y-98050000D02*
X146300000Y-98050000D01*
X146300000Y-102450000D02*
X146300000Y-98050000D01*
X142450000Y-102450000D02*
X142450000Y-102450000D01*
X142450000Y-98050000D02*
X142450000Y-102450000D01*
X142450000Y-98050000D02*
X142450000Y-98050000D01*
X142450000Y-102450000D02*
X142450000Y-98050000D01*
D12*
X144375000Y-104850000D02*
G75*
G02*
X144375000Y-105050000I0J-100000D01*
G01*
X144375000Y-105050000D02*
G75*
G02*
X144375000Y-104850000I0J100000D01*
G01*
X144375000Y-104850000D02*
G75*
G02*
X144375000Y-105050000I0J-100000D01*
G01*
%TO.C,BPW2*%
X131450000Y-109375000D02*
X131450000Y-109375000D01*
X131650000Y-109375000D02*
X131650000Y-109375000D01*
X131450000Y-109375000D02*
X131450000Y-109375000D01*
D13*
X138450000Y-111125000D02*
X138450000Y-111300000D01*
X138450000Y-111125000D02*
X138450000Y-111125000D01*
X138450000Y-111300000D02*
X138450000Y-111125000D01*
X138450000Y-111300000D02*
X138450000Y-111300000D01*
X134050000Y-111300000D02*
X134050000Y-110625000D01*
X134050000Y-111300000D02*
X134050000Y-111300000D01*
X134050000Y-110625000D02*
X134050000Y-111300000D01*
X134050000Y-110625000D02*
X134050000Y-110625000D01*
X138450000Y-107625000D02*
X138450000Y-107450000D01*
X138450000Y-107625000D02*
X138450000Y-107625000D01*
X138450000Y-107450000D02*
X138450000Y-107625000D01*
X138450000Y-107450000D02*
X138450000Y-107450000D01*
X134050000Y-107450000D02*
X134050000Y-108125000D01*
X134050000Y-107450000D02*
X134050000Y-107450000D01*
X134050000Y-108125000D02*
X134050000Y-107450000D01*
X134050000Y-108125000D02*
X134050000Y-108125000D01*
X134050000Y-111300000D02*
X134050000Y-111300000D01*
X138450000Y-111300000D02*
X134050000Y-111300000D01*
X138450000Y-111300000D02*
X138450000Y-111300000D01*
X134050000Y-111300000D02*
X138450000Y-111300000D01*
X134050000Y-107450000D02*
X134050000Y-107450000D01*
X138450000Y-107450000D02*
X134050000Y-107450000D01*
X138450000Y-107450000D02*
X138450000Y-107450000D01*
X134050000Y-107450000D02*
X138450000Y-107450000D01*
D12*
X131650000Y-109375000D02*
G75*
G02*
X131450000Y-109375000I-100000J0D01*
G01*
X131450000Y-109375000D02*
G75*
G02*
X131650000Y-109375000I100000J0D01*
G01*
X131650000Y-109375000D02*
G75*
G02*
X131450000Y-109375000I-100000J0D01*
G01*
%TO.C,BPW1*%
X118950000Y-109375000D02*
X118950000Y-109375000D01*
X119150000Y-109375000D02*
X119150000Y-109375000D01*
X118950000Y-109375000D02*
X118950000Y-109375000D01*
D13*
X125950000Y-111125000D02*
X125950000Y-111300000D01*
X125950000Y-111125000D02*
X125950000Y-111125000D01*
X125950000Y-111300000D02*
X125950000Y-111125000D01*
X125950000Y-111300000D02*
X125950000Y-111300000D01*
X121550000Y-111300000D02*
X121550000Y-110625000D01*
X121550000Y-111300000D02*
X121550000Y-111300000D01*
X121550000Y-110625000D02*
X121550000Y-111300000D01*
X121550000Y-110625000D02*
X121550000Y-110625000D01*
X125950000Y-107625000D02*
X125950000Y-107450000D01*
X125950000Y-107625000D02*
X125950000Y-107625000D01*
X125950000Y-107450000D02*
X125950000Y-107625000D01*
X125950000Y-107450000D02*
X125950000Y-107450000D01*
X121550000Y-107450000D02*
X121550000Y-108125000D01*
X121550000Y-107450000D02*
X121550000Y-107450000D01*
X121550000Y-108125000D02*
X121550000Y-107450000D01*
X121550000Y-108125000D02*
X121550000Y-108125000D01*
X121550000Y-111300000D02*
X121550000Y-111300000D01*
X125950000Y-111300000D02*
X121550000Y-111300000D01*
X125950000Y-111300000D02*
X125950000Y-111300000D01*
X121550000Y-111300000D02*
X125950000Y-111300000D01*
X121550000Y-107450000D02*
X121550000Y-107450000D01*
X125950000Y-107450000D02*
X121550000Y-107450000D01*
X125950000Y-107450000D02*
X125950000Y-107450000D01*
X121550000Y-107450000D02*
X125950000Y-107450000D01*
D12*
X119150000Y-109375000D02*
G75*
G02*
X118950000Y-109375000I-100000J0D01*
G01*
X118950000Y-109375000D02*
G75*
G02*
X119150000Y-109375000I100000J0D01*
G01*
X119150000Y-109375000D02*
G75*
G02*
X118950000Y-109375000I-100000J0D01*
G01*
%TO.C,C2*%
D14*
X144163333Y-80453571D02*
X144102857Y-80514047D01*
X143921428Y-80574523D01*
X143800476Y-80574523D01*
X143619047Y-80514047D01*
X143498095Y-80393095D01*
X143437619Y-80272142D01*
X143377142Y-80030238D01*
X143377142Y-79848809D01*
X143437619Y-79606904D01*
X143498095Y-79485952D01*
X143619047Y-79365000D01*
X143800476Y-79304523D01*
X143921428Y-79304523D01*
X144102857Y-79365000D01*
X144163333Y-79425476D01*
X144647142Y-79425476D02*
X144707619Y-79365000D01*
X144828571Y-79304523D01*
X145130952Y-79304523D01*
X145251904Y-79365000D01*
X145312380Y-79425476D01*
X145372857Y-79546428D01*
X145372857Y-79667380D01*
X145312380Y-79848809D01*
X144586666Y-80574523D01*
X145372857Y-80574523D01*
%TO.C,C1*%
X115453571Y-109586666D02*
X115514047Y-109647142D01*
X115574523Y-109828571D01*
X115574523Y-109949523D01*
X115514047Y-110130952D01*
X115393095Y-110251904D01*
X115272142Y-110312380D01*
X115030238Y-110372857D01*
X114848809Y-110372857D01*
X114606904Y-110312380D01*
X114485952Y-110251904D01*
X114365000Y-110130952D01*
X114304523Y-109949523D01*
X114304523Y-109828571D01*
X114365000Y-109647142D01*
X114425476Y-109586666D01*
X115574523Y-108377142D02*
X115574523Y-109102857D01*
X115574523Y-108740000D02*
X114304523Y-108740000D01*
X114485952Y-108860952D01*
X114606904Y-108981904D01*
X114667380Y-109102857D01*
%TD*%
M02*
